<?xml version="1.0" standalone="no"?>
<!DOCTYPE svg PUBLIC "-//W3C//DTD SVG 20010904//EN"
 "http://www.w3.org/TR/2001/REC-SVG-20010904/DTD/svg10.dtd">
<svg version="1.0" xmlns="http://www.w3.org/2000/svg"
 width="512.000000pt" height="512.000000pt" viewBox="0 0 512.000000 512.000000"
 preserveAspectRatio="xMidYMid meet">

<g transform="translate(0.000000,512.000000) scale(0.100000,-0.100000)"
fill="#000000" stroke="none">
<path d="M2468 3773 c-47 -82 -173 -302 -281 -489 -108 -188 -197 -348 -199
-355 -2 -11 16 -15 72 -20 41 -3 79 -2 84 3 6 4 43 8 83 8 59 0 84 -5 124 -26
36 -18 49 -30 45 -40 -3 -9 -6 -16 -6 -17 0 -1 -26 -1 -57 -1 l-58 2 50 -7
c33 -4 51 -11 53 -21 2 -12 -8 -14 -50 -12 -71 4 -83 9 -69 26 16 18 -6 26
-72 26 -36 0 -47 -3 -37 -10 8 -5 11 -12 7 -16 -6 -6 -752 45 -1065 73 -90 8
-63 28 36 26 55 0 40 2 -51 9 -118 10 -129 9 -141 -7 -8 -11 -20 -16 -30 -12
-23 9 -20 25 7 30 16 3 13 5 -10 6 -40 1 -41 -6 -6 -46 l28 -31 240 -17 c132
-10 243 -20 246 -24 4 -3 10 -25 14 -48 6 -37 4 -43 -12 -44 -39 -3 163 -27
265 -32 59 -3 95 -3 80 -1 -26 5 -28 9 -28 54 l0 49 83 -6 c45 -3 84 -7 86 -9
2 -2 -9 -24 -23 -49 -22 -38 -32 -45 -59 -46 -30 -2 -30 -2 -4 -6 15 -2 27 -8
27 -13 0 -18 -19 -19 -54 -5 -19 8 -43 15 -53 14 -10 0 5 -10 34 -21 l52 -20
-23 -42 c-13 -22 -66 -115 -118 -206 -52 -91 -100 -175 -107 -187 l-12 -23 85
0 84 0 104 181 c56 99 113 191 124 204 12 13 20 26 17 28 -2 3 5 20 16 38 19
31 22 32 83 32 35 -1 53 1 41 4 -19 4 -23 11 -24 46 l-2 42 -6 -40 c-5 -34
-10 -40 -33 -43 -16 -2 -28 -1 -28 3 0 19 42 83 57 87 10 2 85 -1 167 -8 149
-13 208 -29 220 -59 3 -9 19 -15 41 -15 29 0 36 -3 33 -17 -2 -14 -17 -19 -58
-24 l-55 -6 52 -1 c48 -2 53 -4 59 -28 5 -19 9 -22 15 -12 5 8 9 -10 9 -47 0
-42 -3 -56 -10 -45 -7 11 -10 7 -10 -17 0 -21 5 -33 13 -33 44 0 68 198 42
340 -4 17 -1 14 9 -10 8 -19 15 -47 15 -62 1 -34 20 -46 37 -23 26 35 69 47
219 60 83 7 152 11 155 10 3 -2 4 -24 2 -49 -3 -36 -8 -46 -25 -49 -12 -3 6
-5 41 -4 61 0 64 -1 83 -32 11 -18 17 -36 14 -41 -3 -4 1 -10 8 -13 8 -3 64
-93 126 -201 l113 -196 84 0 c85 0 85 0 73 23 -7 12 -55 96 -107 187 -52 91
-105 184 -118 206 l-23 42 52 20 c29 11 44 21 34 21 -10 1 -34 -6 -53 -14 -35
-14 -54 -13 -54 5 0 5 12 11 28 13 25 4 25 4 -5 6 -27 1 -37 8 -59 46 -14 25
-25 47 -23 49 2 2 41 6 87 9 l82 5 0 -48 c0 -45 -2 -49 -27 -54 -48 -8 148 4
257 16 58 7 97 14 86 16 -15 3 -17 10 -12 40 3 21 6 42 6 48 0 6 92 17 250 29
l249 18 26 36 c14 20 22 37 18 38 -5 2 -80 -4 -168 -11 -94 -9 -128 -14 -83
-13 99 2 126 -18 36 -26 -313 -28 -1059 -79 -1065 -73 -4 4 -1 11 7 16 10 7
-1 10 -37 10 -66 0 -88 -8 -72 -26 14 -17 2 -22 -69 -26 -42 -2 -52 0 -50 12
2 10 20 17 53 22 48 6 47 6 -12 4 -55 -2 -63 0 -63 16 0 11 18 27 50 43 40 20
64 25 129 25 44 0 81 -3 83 -8 2 -4 37 -5 78 -2 56 4 74 8 72 19 -1 7 -100
183 -219 390 -119 207 -245 427 -281 489 -35 61 -68 112 -72 112 -4 0 -46 -66
-92 -147z m109 -165 c8 -18 260 -457 267 -465 1 -1 18 2 38 6 61 14 66 -9 7
-30 -99 -35 -197 -91 -255 -145 -59 -55 -87 -66 -97 -39 -8 19 8 28 37 21 17
-4 32 4 61 34 l38 39 -27 65 c-21 48 -34 66 -52 70 -20 5 -24 13 -24 41 0 44
-18 46 -22 3 -2 -23 -10 -36 -25 -43 -13 -5 -35 -37 -54 -78 -29 -64 -33 -68
-58 -62 -19 4 -22 3 -11 -5 17 -11 10 -13 -14 -4 -9 3 -14 10 -11 14 3 4 -2
11 -11 14 -8 3 -12 2 -9 -4 4 -6 -5 -5 -19 1 -14 7 -23 15 -21 19 7 11 -24 22
-37 13 -6 -3 -8 -1 -4 5 3 5 0 12 -6 15 -15 5 1 36 172 335 63 111 118 201
121 202 3 0 10 -10 16 -22z m-61 -499 c-5 -29 -35 -63 -45 -53 -7 7 31 84 42
84 5 0 7 -13 3 -31z m68 15 c13 -33 6 -44 -24 -44 -19 0 -30 5 -30 14 0 27 12
46 30 46 10 0 21 -7 24 -16z m50 -25 c9 -23 16 -43 14 -44 -9 -10 -39 27 -44
54 -9 45 11 39 30 -10z m-309 -109 c21 -13 63 -34 94 -46 63 -27 49 -32 -25
-9 -27 8 -88 15 -136 15 -49 0 -88 2 -88 4 0 3 10 21 21 41 l22 36 -22 23
c-11 12 -21 30 -21 40 0 12 15 4 58 -32 32 -26 76 -59 97 -72z m593 24 c17
-27 32 -52 32 -56 0 -10 -224 -11 -233 -1 -7 6 62 60 107 85 14 7 17 7 11 -2
-6 -9 -2 -9 14 -1 11 7 21 14 21 17 0 3 -5 2 -12 -2 -7 -4 -8 -3 -4 5 12 19
29 8 64 -45z m1310 -86 c-3 -7 -13 -13 -23 -13 -10 0 -20 6 -22 13 -3 7 5 12
22 12 17 0 25 -5 23 -12z m-1828 -23 c0 -19 -17 -19 -50 0 l-25 14 38 1 c26 0
37 -4 37 -15z m168 1 c34 -1 41 -16 17 -36 -10 -8 -15 -9 -15 -2 0 6 -7 9 -16
5 -8 -3 -13 -12 -10 -19 7 -19 -3 -18 -26 3 -10 9 -18 24 -18 34 0 9 -6 20
-12 23 -7 3 1 3 17 0 17 -3 45 -7 63 -8z m202 -1 c-33 -19 -50 -19 -50 0 0 11
11 15 38 15 l37 -1 -25 -14z m-169 -51 c-12 -15 -21 -22 -21 -17 0 6 7 16 15
23 8 7 16 22 16 34 1 17 2 17 6 4 2 -10 -5 -30 -16 -44z m-926 -43 c39 -6 40
-7 43 -52 l3 -45 -137 13 c-76 7 -139 14 -140 16 0 1 -4 22 -7 46 l-5 43 101
-7 c56 -4 120 -10 142 -14z m2009 -23 c-4 -24 -8 -44 -8 -45 -1 -2 -64 -9
-139 -16 l-137 -13 0 43 c0 27 5 46 13 49 18 6 160 21 225 23 l52 1 -6 -42z
m-604 -58 c26 -50 25 -52 -7 -48 -17 2 -29 10 -31 21 -4 20 5 67 13 67 3 0 14
-18 25 -40z"/>
<path d="M2755 2984 l-30 -26 33 22 c17 12 32 23 32 26 0 7 -4 5 -35 -22z"/>
<path d="M2510 2891 c0 -11 4 -22 9 -25 4 -3 6 6 3 19 -5 30 -12 33 -12 6z"/>
<path d="M1238 2913 c17 -2 47 -2 65 0 17 2 3 4 -33 4 -36 0 -50 -2 -32 -4z"/>
<path d="M3650 2905 c-74 -7 -110 -12 -80 -13 30 0 120 5 200 12 82 8 117 13
80 13 -36 0 -126 -5 -200 -12z"/>
<path d="M1410 2900 c41 -4 102 -7 135 -7 l60 0 -75 7 c-41 4 -102 7 -135 7
l-60 0 75 -7z"/>
<path d="M1638 2883 c17 -2 47 -2 65 0 17 2 3 4 -33 4 -36 0 -50 -2 -32 -4z"/>
<path d="M3315 2880 l-70 -6 60 -1 c33 0 94 3 135 7 l75 7 -65 0 c-36 0 -96
-3 -135 -7z"/>
<path d="M1767 2873 c18 -2 50 -2 70 0 21 2 7 4 -32 4 -38 0 -55 -2 -38 -4z"/>
<path d="M1908 2863 c17 -2 47 -2 65 0 17 2 3 4 -33 4 -36 0 -50 -2 -32 -4z"/>
<path d="M3148 2863 c17 -2 47 -2 65 0 17 2 3 4 -33 4 -36 0 -50 -2 -32 -4z"/>
<path d="M2038 2853 c17 -2 47 -2 65 0 17 2 3 4 -33 4 -36 0 -50 -2 -32 -4z"/>
<path d="M3018 2853 c17 -2 47 -2 65 0 17 2 3 4 -33 4 -36 0 -50 -2 -32 -4z"/>
<path d="M1560 2675 c63 -19 120 -34 125 -34 22 1 -191 69 -215 69 -14 -1 27
-16 90 -35z"/>
<path d="M3520 2675 c-123 -43 -105 -43 40 0 63 19 102 34 85 34 -16 0 -73
-16 -125 -34z"/>
<path d="M2173 2663 c15 -2 39 -2 55 0 15 2 2 4 -28 4 -30 0 -43 -2 -27 -4z"/>
<path d="M2310 2659 c-18 -5 -6 -7 39 -8 35 -1 62 1 60 3 -10 8 -76 12 -99 5z"/>
<path d="M2705 2653 l-80 -12 82 6 c76 5 82 4 93 -17 6 -12 13 -40 16 -62 3
-39 27 -78 46 -78 4 0 8 36 8 80 0 82 -6 93 -35 63 -14 -13 -18 -14 -25 -2 -5
8 -5 16 1 20 22 13 -29 14 -106 2z m142 -135 c-3 -7 -5 -2 -5 12 0 14 2 19 5
13 2 -7 2 -19 0 -25z"/>
<path d="M2863 2663 c20 -2 54 -2 75 0 20 2 3 4 -38 4 -41 0 -58 -2 -37 -4z"/>
<path d="M2110 2625 c43 -45 49 -45 13 0 -15 19 -32 35 -37 35 -6 0 5 -16 24
-35z"/>
<path d="M2996 2622 l-29 -37 36 34 c39 36 42 41 30 41 -5 0 -21 -17 -37 -38z"/>
<path d="M2250 2570 c0 -44 4 -80 8 -80 39 0 61 112 28 143 -10 9 -23 17 -28
17 -4 0 -8 -36 -8 -80z m27 -42 c-2 -13 -4 -5 -4 17 -1 22 1 32 4 23 2 -10 2
-28 0 -40z"/>
<path d="M2233 2570 c0 -41 2 -58 4 -37 2 20 2 54 0 75 -2 20 -4 3 -4 -38z"/>
<path d="M2883 2570 c0 -41 2 -58 4 -37 2 20 2 54 0 75 -2 20 -4 3 -4 -38z"/>
<path d="M2224 2010 c-59 -14 -102 -48 -130 -106 -24 -48 -26 -63 -22 -130 4
-62 10 -82 34 -117 92 -132 323 -109 359 36 7 27 7 27 -45 27 -45 0 -54 -4
-77 -30 -20 -24 -33 -30 -65 -30 -125 0 -146 221 -25 263 33 12 79 -5 96 -34
14 -26 21 -29 69 -29 58 0 63 9 37 59 -40 78 -134 115 -231 91z"/>
<path d="M982 1803 c-40 -114 -72 -212 -72 -216 0 -4 23 -7 52 -5 48 3 52 5
63 37 l11 33 66 0 c78 0 84 -2 91 -42 6 -29 8 -30 61 -30 l55 0 -73 213 -73
212 -55 3 -55 3 -71 -208z m152 3 c10 -32 15 -60 13 -63 -3 -2 -23 -3 -45 -1
l-39 3 20 68 c11 37 23 64 27 60 5 -4 15 -34 24 -67z"/>
<path d="M1400 1795 l0 -215 50 0 50 0 0 215 0 215 -50 0 -50 0 0 -215z"/>
<path d="M1630 1795 l0 -215 50 0 50 0 0 81 0 80 41 -3 42 -3 27 -75 27 -75
56 -3 57 -3 -37 87 c-23 56 -33 91 -27 99 41 55 46 68 46 115 0 103 -45 130
-217 130 l-115 0 0 -215z m211 115 c21 -12 25 -50 7 -68 -7 -7 -36 -12 -65
-12 l-53 0 0 45 0 45 46 0 c25 0 54 -5 65 -10z"/>
<path d="M2580 1796 l0 -216 50 0 50 0 0 81 0 80 42 -3 43 -3 29 -77 29 -78
54 0 53 0 -19 48 c-10 26 -27 66 -36 90 -17 42 -17 44 3 63 35 32 48 93 31
142 -25 70 -51 82 -200 85 l-129 4 0 -216z m222 107 c42 -37 9 -73 -68 -73
l-54 0 0 45 0 45 52 0 c34 0 58 -6 70 -17z"/>
<path d="M3081 1805 c-39 -114 -71 -211 -71 -216 0 -6 23 -9 51 -7 49 3 52 5
63 37 l11 33 70 0 70 0 14 -36 c13 -35 15 -36 66 -36 l53 0 -73 213 -73 212
-55 3 -54 3 -72 -206z m151 7 c10 -31 18 -60 18 -64 0 -5 -21 -8 -46 -8 -37 0
-45 3 -40 15 3 9 13 41 22 71 9 31 19 53 22 49 3 -3 14 -31 24 -63z"/>
<path d="M3500 1795 l0 -215 50 0 50 0 0 85 0 85 85 0 85 0 0 45 0 45 -85 0
-85 0 0 40 0 40 95 0 95 0 0 45 0 45 -145 0 -145 0 0 -215z"/>
<path d="M3870 1965 l0 -45 60 0 60 0 0 -170 0 -170 50 0 50 0 0 170 0 170 60
0 60 0 0 45 0 45 -170 0 -170 0 0 -45z"/>
<path d="M1860 1325 c0 -85 17 -103 22 -22 l3 52 24 -42 c14 -24 28 -43 33
-43 4 0 18 19 30 43 l23 42 3 -52 c5 -81 22 -63 22 22 0 41 -4 75 -9 75 -6 0
-22 -22 -38 -50 -15 -27 -30 -50 -33 -50 -3 0 -18 23 -33 50 -16 28 -32 50
-38 50 -5 0 -9 -34 -9 -75z"/>
<path d="M2193 1363 c-8 -21 -24 -55 -34 -75 -16 -31 -17 -38 -5 -38 8 0 18 9
21 20 9 30 77 28 98 -2 8 -13 18 -20 21 -17 10 9 -58 149 -72 149 -7 0 -20
-17 -29 -37z m57 -48 c0 -8 -37 -12 -58 -6 -1 1 5 15 14 33 l16 32 14 -25 c7
-13 13 -29 14 -34z"/>
<path d="M2420 1325 c0 -41 4 -75 9 -75 5 0 11 10 13 22 5 34 38 35 65 2 12
-16 25 -25 29 -21 4 3 1 14 -6 22 -11 14 -11 21 4 46 16 28 16 32 2 54 -14 21
-24 25 -66 25 l-50 0 0 -75z m98 28 c2 -16 -4 -26 -22 -34 -36 -17 -56 -5 -56
31 0 30 2 31 38 28 30 -2 38 -7 40 -25z"/>
<path d="M2680 1325 c0 -43 4 -75 10 -75 6 0 10 8 10 19 0 10 7 25 16 32 14
11 20 9 46 -20 40 -45 56 -35 17 11 -31 39 -31 46 4 86 36 39 5 24 -40 -20
l-43 -42 0 42 c0 23 -4 42 -10 42 -6 0 -10 -32 -10 -75z"/>
<path d="M2930 1325 l0 -75 55 0 c30 0 55 5 55 10 0 6 -18 10 -40 10 -36 0
-40 3 -40 25 0 22 4 25 35 25 19 0 35 5 35 10 0 6 -16 10 -35 10 -28 0 -35 4
-35 20 0 17 7 20 40 20 22 0 40 5 40 10 0 6 -25 10 -55 10 l-55 0 0 -75z"/>
<path d="M3160 1390 c0 -5 11 -10 25 -10 24 0 25 -2 25 -65 0 -37 4 -65 10
-65 6 0 10 28 10 65 0 62 1 65 24 65 14 0 28 5 31 10 4 6 -18 10 -59 10 -37 0
-66 -4 -66 -10z"/>
</g>
</svg>
